<?xml version="1.0" standalone="no"?><!DOCTYPE svg PUBLIC "-//W3C//DTD SVG 1.1//EN" "http://www.w3.org/Graphics/SVG/1.1/DTD/svg11.dtd"><svg t="1783903724928" class="icon" viewBox="0 0 1024 1024" version="1.1" xmlns="http://www.w3.org/2000/svg" p-id="5350" xmlns:xlink="http://www.w3.org/1999/xlink" width="48" height="48"><path d="M493.3 851.63L220.37 578.7c-36.84-36.84-36.84-96.56 0-133.4L493.3 172.37c36.84-36.84 96.56-36.84 133.4 0L899.63 445.3c36.84 36.84 36.84 96.56 0 133.4L626.7 851.63c-36.84 36.84-96.56 36.84-133.4 0z" fill="#FFBBA6" p-id="5351"></path><path d="M464 891.26c-13.8 0-27.26-2.62-40-7.79-13.2-5.35-25.03-13.21-35.18-23.36L115.88 587.18c-10.15-10.15-18-21.98-23.36-35.18-5.17-12.74-7.79-26.2-7.79-40s2.62-27.26 7.79-40c5.35-13.2 13.21-25.03 23.36-35.18l272.94-272.94c10.15-10.15 21.98-18 35.18-23.36 12.74-5.17 26.2-7.79 40-7.79s27.26 2.62 40 7.79c13.2 5.35 25.03 13.21 35.18 23.36l68.23 68.23c4.69 4.69 4.69 12.28 0 16.97-4.69 4.69-12.28 4.69-16.97 0l-68.23-68.23c-7.86-7.86-17.02-13.95-27.23-18.09-9.86-4-20.29-6.03-30.99-6.03s-21.12 2.03-30.99 6.03c-10.2 4.14-19.36 10.22-27.23 18.09L132.85 453.79c-7.86 7.86-13.95 17.02-18.09 27.23-4 9.86-6.03 20.29-6.03 30.99s2.03 21.12 6.03 30.99c4.14 10.21 10.22 19.37 18.09 27.23l272.94 272.94c7.86 7.86 17.02 13.95 27.23 18.09 9.86 4 20.29 6.03 30.99 6.03s21.12-2.03 30.99-6.03c10.2-4.14 19.37-10.22 27.23-18.09l272.94-272.94c7.86-7.86 13.95-17.02 18.09-27.23 4-9.86 6.03-20.29 6.03-30.99s-2.03-21.12-6.03-30.99c-4.14-10.2-10.22-19.36-18.09-27.23l-68.23-68.23c-4.69-4.69-4.69-12.28 0-16.97 4.69-4.69 12.28-4.69 16.97 0l68.23 68.23c10.15 10.15 18 21.98 23.36 35.18 5.17 12.74 7.79 26.2 7.79 40s-2.62 27.26-7.79 40c-5.35 13.2-13.21 25.03-23.36 35.18L539.18 860.12c-10.15 10.15-21.98 18-35.18 23.36-12.74 5.16-26.2 7.78-40 7.78z" fill="#9E1919" p-id="5352"></path><path d="M356.55 495.66c-6.87 0-12.44 5.57-12.44 12.44v136.82c0 6.87 5.57 12.44 12.44 12.44s12.44-5.57 12.44-12.44V508.1c0-6.87-5.57-12.44-12.44-12.44zM582.51 333.96c-1.3 0-2.63 0.21-3.93 0.64-10.82 3.61-28.57 4.88-47.88 4.88-31.35 0-66.81-3.34-83.47-5.42-0.53-0.07-1.06-0.1-1.59-0.1-6.12 0-11.51 4.63-12.29 10.9-0.86 6.81 3.98 13.03 10.8 13.88 2.71 0.34 45.36 5.58 85.72 5.58 21.7 0 42.75-1.52 56.57-6.12 6.52-2.17 10.04-9.22 7.87-15.73-1.74-5.21-6.6-8.51-11.8-8.51zM390.47 381.59c-2.73 0-5.44 0.9-7.68 2.65-11.82 9.26-29.09 10.59-45 10.59-1.41 0-2.81-0.01-4.2-0.03-12.49-0.13-25.7-0.56-37.8-4.13-1.18-0.35-2.37-0.51-3.54-0.51-5.38 0-10.32 3.5-11.91 8.92-1.95 6.59 1.82 13.51 8.41 15.45 15.16 4.48 30.97 5 44.59 5.15 1.43 0.02 2.87 0.03 4.31 0.03 12.66 0 25.37-0.88 37.21-4.29a49.703 49.703 0 0 1-5.13 9.93c-2.95 4.39-6.94 8.81-12.22 13.53-4.14 3.7-8.35 7.6-12.63 11.57-24.6 22.79-49.91 46.3-76.71 46.3-2.89 0-5.79-0.27-8.71-0.85-0.79-0.15-1.58-0.22-2.36-0.22-5.85 0-11.08 4.08-12.25 10.02-1.32 6.74 3.06 13.28 9.8 14.61 4.69 0.92 9.28 1.35 13.78 1.35 36.21 0 66.39-27.97 93.36-52.97 4.17-3.86 8.27-7.66 12.3-11.27 6.84-6.12 12.17-12.07 16.29-18.21 9.02-13.45 13.46-29.75 12.5-45.92a12.45 12.45 0 0 0-7.3-10.6c-1.64-0.74-3.38-1.1-5.11-1.1zM532.76 371.28h-37.31c-24.01 0-43.54 19.53-43.54 43.54 0 24 19.53 43.53 43.54 43.53h37.31c24.01 0 43.54-19.53 43.54-43.53-0.01-24.01-19.54-43.54-43.54-43.54z m-37.32 62.19c-10.29 0-18.66-8.37-18.66-18.65 0-10.29 8.37-18.66 18.66-18.66h37.31c10.29 0 18.66 8.37 18.66 18.66 0 10.28-8.37 18.65-18.66 18.65h-37.31zM541.04 471.06h-43.52c-57 0-103.38 46.38-103.38 103.38v4.14c0 57.01 46.38 103.38 103.38 103.38h43.52c57.01 0 103.38-46.38 103.38-103.38v-4.14c0-57-46.37-103.38-103.38-103.38z m-43.52 186.57c-43.59 0-79.05-35.46-79.05-79.05v-4.14c0-43.59 35.46-79.05 79.05-79.05h43.52c43.59 0 79.05 35.46 79.05 79.05v4.14c0 43.59-35.46 79.05-79.05 79.05h-43.52zM367.62 471.43c-6.56 0-11.87 5-12.35 11.54-0.5 6.86 4.65 12.81 11.5 13.31 8.17 0.59 16.2 4.7 21.45 10.99 2.46 2.94 5.99 4.46 9.54 4.46 2.81 0 5.65-0.95 7.97-2.9 5.27-4.41 5.96-12.25 1.56-17.52-9.63-11.52-23.75-18.75-38.72-19.83-0.31-0.03-0.63-0.05-0.95-0.05zM329.83 332.23c-4.34 0-8.55 2.28-10.84 6.33-3.38 5.98-1.27 13.57 4.71 16.95l21.83 12.32c1.93 1.09 4.03 1.61 6.1 1.61 4.34 0 8.56-2.28 10.85-6.33 3.38-5.98 1.26-13.57-4.72-16.95l-21.81-12.3a12.264 12.264 0 0 0-6.12-1.63z" fill="#C72B2B" p-id="5353"></path><path d="M518.24 508.37c-6.71 0-12.16 5.45-12.16 12.16v50.03h-62.46c-6.71 0-12.16 5.45-12.16 12.16s5.45 12.16 12.16 12.16h62.46v37.59c0 6.71 5.45 12.16 12.16 12.16s12.16-5.45 12.16-12.16v-37.59h62.47c6.71 0 12.16-5.45 12.16-12.16s-5.45-12.16-12.16-12.16H530.4v-50.03c0.01-6.71-5.44-12.16-12.16-12.16z" fill="#C72B2B" p-id="5354"></path></svg>